Coordinates
version=1
nRows=14
nColumns=24
inDegrees=yes

Units are S.I. units (second, meters, Newtons, ...)
Angles are in degrees.

endheader
time	pelvis_tilt	pelvis_list	pelvis_rotation	pelvis_tx	pelvis_ty	pelvis_tz	hip_flexion_r	hip_adduction_r	hip_rotation_r	knee_angle_r	ankle_angle_r	subtalar_angle_r	mtp_angle_r	hip_flexion_l	hip_adduction_l	hip_rotation_l	knee_angle_l	ankle_angle_l	subtalar_angle_l	mtp_angle_l	lumbar_extension	lumbar_bending	lumbar_rotation
      6.64500000	     15.09629588	      3.56055248	      1.38655635	      2.48025751	      0.94609432	     -0.30315002	     -3.46597400	     -7.21120497	     -8.02308259	    -65.79374512	      4.80764805	     -3.27034653	      0.00000000	    -12.50849476	      6.03728502	     14.67682908	    -10.17089568	     15.20564687	     -5.82827289	      0.00000000	    -27.82186887	     -4.21031397	     -0.53878252
      6.65000000	     15.11069928	      3.30845892	      1.63749088	      2.48585294	      0.94669681	     -0.30348147	     -2.83074751	     -6.92045244	     -8.33998348	    -65.45451782	      5.93810627	     -3.97439770	      0.00000000	    -13.06817057	      5.65367167	     14.71888851	     -9.78802773	     15.32401665	     -5.62991975	      0.00000000	    -27.79620139	     -3.79344489	     -0.83490699
      6.65500000	     15.19993230	      3.08960525	      1.99706366	      2.49141182	      0.94730251	     -0.30395146	     -2.32501043	     -6.66904760	     -8.79049156	    -65.01409238	      7.04139209	     -4.62646030	      0.00000000	    -13.69398721	      5.27708192	     14.84933134	     -9.43490231	     15.53772064	     -5.38888500	      0.00000000	    -27.86262101	     -3.35314338	     -1.29783843
      6.66000000	     15.28018372	      2.86587673	      2.32305081	      2.49698756	      0.94787401	     -0.30436089	     -1.81643965	     -6.41395775	     -9.19855220	    -64.49361434	      8.11004285	     -5.18460239	      0.00000000	    -14.31673257	      4.89541118	     14.94972110	     -9.05676970	     15.66631095	     -5.19670389	      0.00000000	    -27.90929748	     -2.92576615	     -1.70161547
      6.66500000	     15.42161603	      2.68790027	      2.69395332	      2.50253605	      0.94846960	     -0.30477344	     -1.40674804	     -6.20210411	     -9.65500979	    -63.88143540	      9.13767622	     -5.69892256	      0.00000000	    -15.00468304	      4.53605154	     15.08991295	     -8.67104765	     15.75092530	     -4.98045725	      0.00000000	    -28.03268375	     -2.53475380	     -2.17896378
      6.67000000	     15.50398339	      2.48258540	      3.00424851	      2.50808424	      0.94893782	     -0.30510890	     -0.92398013	     -5.96151756	    -10.02568315	    -63.20962405	     10.11408918	     -6.13398852	      0.00000000	    -15.62284756	      4.16297053	     15.16211352	     -8.29042877	     15.87844838	     -4.76922614	      0.00000000	    -28.08135229	     -2.14069856	     -2.57424397
      6.67500000	     15.59441861	      2.29218316	      3.32797953	      2.51361271	      0.94936653	     -0.30546277	     -0.47096292	     -5.74036522	    -10.40854264	    -62.45833255	     11.04715887	     -6.49569331	      0.00000000	    -16.24202596	      3.79865973	     15.22142091	     -7.91834284	     15.99459861	     -4.56081073	      0.00000000	    -28.13938202	     -1.75461571	     -2.98501011
      6.68000000	     15.64694385	      2.10331784	      3.60740974	      2.51915723	      0.94968128	     -0.30575359	      0.02067268	     -5.52183003	    -10.72871285	    -61.64949321	     11.94157691	     -6.76102917	      0.00000000	    -16.82135996	      3.44756305	     15.25247293	     -7.54325306	     16.14539809	     -4.37301396	      0.00000000	    -28.14617199	     -1.39360928	     -3.33729857
      6.68500000	     15.75785865	      1.94213675	      3.94345967	      2.52463449	      0.95003430	     -0.30605498	      0.41257058	     -5.32398898	    -11.10577378	    -60.74556574	     12.78607483	     -6.99514474	      0.00000000	    -17.44947811	      3.09656496	     15.30719032	     -7.18313065	     16.23069402	     -4.14417565	      0.00000000	    -28.23872557	     -1.03811922	     -3.77549213
      6.69000000	     15.83367134	      1.78022130	      4.22992883	      2.53012960	      0.95027776	     -0.30630087	      0.83794325	     -5.12722659	    -11.41382967	    -59.78425947	     13.59813483	     -7.12363721	      0.00000000	    -18.04124159	      2.76007919	     15.32487634	     -6.82079988	     16.34476583	     -3.94712901	      0.00000000	    -28.28266826	     -0.70545358	     -4.14425895
      6.69500000	     15.90774151	      1.63219226	      4.51038356	      2.53560504	      0.95046497	     -0.30651967	      1.24684981	     -4.94287305	    -11.70349458	    -58.75356436	     14.37102572	     -7.17968729	      0.00000000	    -18.62530154	      2.43694835	     15.33315810	     -6.46694918	     16.45603356	     -3.75357793	      0.00000000	    -28.32833965	     -0.39181371	     -4.51340164
      6.70000000	     15.98316990	      1.49537682	      4.77923936	      2.54107648	      0.95059770	     -0.30670215	      1.63448620	     -4.76614473	    -11.96636185	    -57.65303224	     15.10705234	     -7.15949334	      0.00000000	    -19.20934666	      2.12514998	     15.33438130	     -6.11461935	     16.56722076	     -3.56993759	      0.00000000	    -28.37661726	     -0.09740239	     -4.87750406
      6.70500000	     16.05499169	      1.36997974	      5.03555693	      2.54652549	      0.95067052	     -0.30685613	      2.00693004	     -4.59899930	    -12.20362839	    -56.48463876	     15.81051344	     -7.07096176	      0.00000000	    -19.78258041	      1.82821520	     15.31928988	     -5.77443754	     16.67559695	     -3.39685059	      0.00000000	    -28.42665710	      0.18012066	     -5.22754255
      6.71000000	     16.11502921	      1.25463307	      5.27603129	      2.55195882	      0.95067900	     -0.30697484	      2.37273018	     -4.43913820	    -12.40773710	    -55.24917410	     16.48456497	     -6.91083193	      0.00000000	    -20.33649704	      1.54654242	     15.29075952	     -5.44758935	     16.78360709	     -3.22933028	      0.00000000	    -28.46735631	      0.43775003	     -5.55912179
